PathFileType	4	(X/Y/Z)	Patient4_TMGait_0pt4_02_right_17.trc.trc
DataRate	CameraRate	NumFrames	NumMarkers	Units	OrigDataRate	OrigDataStartFrame	OrigNumFrames
70.707070707071	70.707070707071	6	33	mm	70.707070707071	106	       141
Frame#	Time	Sacral			L.Shoulder			Chest			R.Shoulder			Neck			R.ASIS			L.ASIS			R.Thigh.Superior			R.Thigh.Lateral			R.Thigh.Inferior			R.Patella			L.Thigh.Superior			L.Thigh.Lateral			L.Thigh.Inferior			L.Patella			L.Shank.Superior			L.Shank.Lateral			L.Shank.Inferior			R.Shank.Superior			R.Shank.Lateral			R.Shank.Inferior			R.Heel			R.Midfoot.Superior			R.Midfoot.Lateral			R.Toe			L.Heel			L.Midfoot.Lateral			L.Midfoot.Superior			L.Toe			L.Elbow			L.Wrist			R.Elbow			R.Wrist			
		X1	Y1	Z1	X2	Y2	Z2	X3	Y3	Z3	X4	Y4	Z4	X5	Y5	Z5	X6	Y6	Z6	X7	Y7	Z7	X8	Y8	Z8	X9	Y9	Z9	X10	Y10	Z10	X11	Y11	Z11	X12	Y12	Z12	X13	Y13	Z13	X14	Y14	Z14	X15	Y15	Z15	X16	Y16	Z16	X17	Y17	Z17	X18	Y18	Z18	X19	Y19	Z19	X20	Y20	Z20	X21	Y21	Z21	X22	Y22	Z22	X23	Y23	Z23	X24	Y24	Z24	X25	Y25	Z25	X26	Y26	Z26	X27	Y27	Z27	X28	Y28	Z28	X29	Y29	Z29	X30	Y30	Z30	X31	Y31	Z31	X32	Y32	Z32	X33	Y33	Z33	

106	23.495000000000	858.190146767463	1009.574865869019	411.276196181348	1051.495672176731	1415.212014772131	186.475694356732	1138.703856058816	1370.399302952891	363.665749758812	1039.967562506013	1463.697128939363	519.601430844754	1025.962701954556	1496.693817753529	329.800041191101	1085.100828902130	958.018972410538	536.909020815733	1078.478749456265	966.717377793473	261.631967211461	1164.450495041102	784.964357651676	520.542041084783	1126.350175386733	668.713320562083	605.410559388664	1213.989520232807	626.728578023756	526.554409961810	1249.512672351654	544.917990272026	553.451747535461	1112.220187575065	753.386444683954	291.991148544063	1015.381272059180	640.901537717566	229.723614016702	1098.360005466934	561.437919772345	288.491028468335	1094.537654839390	494.059140356950	297.026492295443	1070.246579691188	421.433488192502	292.776353409961	977.808146469626	303.756197545918	255.009029364307	1041.188868121377	196.391696145877	323.629683878258	1231.402984213962	457.999132749909	570.450160591640	1173.656705078172	351.030423445422	640.484836791030	1242.609896895651	260.300357354231	597.474993534400	1147.859838120283	75.736017021922	579.275135143126	1312.095527856946	146.958231064968	619.811360470446	1231.880250609163	72.598181846436	653.244308392406	1435.207996437651	106.938277789952	645.795304639993	922.913963000276	38.378541639482	377.731285498900	995.917777715584	33.712897069723	295.733809850538	1077.394989425285	99.261298878575	319.480477704317	1206.936146325862	51.368611174500	294.432231717331	1096.930001694106	1061.895300714770	84.346683735524	1233.616117091104	838.195188046121	91.458648380711	918.023966990309	1158.986744501080	675.210940132065	917.722603404581	901.236453703980	721.469789729332	
107	23.509142857143	857.154932940119	1009.491568288961	410.584352434370	1051.696818649295	1414.559518395821	186.188955850682	1138.117601024221	1369.997529869960	363.831191574232	1038.841620085559	1463.644576760124	519.222862096087	1025.763287214488	1496.290915751590	328.949015120412	1083.527234543730	957.632478958556	537.174529712325	1078.151646724255	966.812175983112	261.676636926440	1161.033105223119	783.226362015425	521.552436438763	1121.688139392097	667.771801280235	606.753874103405	1209.603542058287	624.949986472802	528.413512443980	1245.165698515749	545.546860622180	554.574495567164	1110.422231436808	752.918734817795	292.077410924403	1012.837962496559	640.943655629447	229.618700082985	1095.102193125958	561.011966423153	288.470955162952	1090.849598579666	493.706253871803	297.006002709270	1066.209415320900	421.126087249389	292.816109115237	973.244251185663	303.834782256755	255.011443980213	1036.177554083234	196.230403344671	323.691010919429	1231.130637768431	459.852055713288	572.051683631267	1179.517341802149	350.324306955444	643.013345767182	1253.071306120673	263.126349394539	599.853884121444	1167.953138152391	73.901577676150	582.891414297906	1329.401677571816	152.631299272232	622.309136853036	1252.697584656372	74.543005726839	656.114989497158	1454.420616484606	118.019361491663	647.005926832805	917.272504506520	38.417878895086	377.766266892636	990.274180308216	33.774623887940	295.812584012870	1071.866424368437	99.128405413326	319.585531320457	1201.329772015401	51.054686200471	294.463042357103	1098.373166046602	1061.200670720249	84.722461143012	1239.200208817870	840.003197939406	93.402408244967	913.204880833757	1160.436545717592	673.997386615719	908.782116132376	903.015955439755	721.708222415857	
108	23.523285714286	856.157210422313	1009.428687122561	410.002335484577	1051.877328509807	1413.950471045730	186.125253346482	1137.560909337425	1369.604528148840	364.184258175352	1037.797586703535	1463.603428026100	519.061710247377	1025.586064374413	1495.914978049824	328.333751971689	1081.970374992036	957.244571968544	537.572119237295	1077.772003230632	966.870412990491	261.867516120160	1157.815527785818	781.646863600097	522.717186735413	1117.158484227434	666.808585031848	608.029163487452	1205.612424987870	623.336598446729	530.425912727117	1241.050803676284	546.043938940217	555.734500640948	1108.630384710796	752.420502433332	292.222706029295	1010.283102808604	640.989194097603	229.663011360330	1091.799581379369	560.570690824462	288.621181975097	1087.109945198900	493.360614004259	297.173064255686	1062.132693449863	420.845046566966	292.994750322114	968.668550841697	303.942342655271	255.095198853577	1031.139037265798	196.079654010347	323.820399516011	1230.537860561594	461.587972864908	573.519251973340	1184.363608680329	350.058250979663	645.250014126426	1261.780983908733	266.119237467539	601.909129708102	1185.144202291932	73.200374686116	586.130133563743	1344.024910452772	158.236660719897	624.167467400024	1270.566813582285	77.047414524714	658.480553127830	1470.589302737510	128.406199437037	647.447927769838	911.614345668948	38.451015463675	377.805537144297	984.621125293257	33.840278187178	295.895679482387	1066.314168082565	99.015124277077	319.699991219308	1195.707393361541	50.778150650160	294.489246724061	1099.550242187262	1060.505770545194	85.328762882843	1244.324333518519	841.797124746506	95.492854415554	908.995756415076	1161.676568854108	673.032339617119	901.591017798827	904.512278028604	721.730957379157	
109	23.537428571429	855.205092925182	1009.378998947145	409.531152608793	1052.043516105466	1413.412865676566	186.279995988441	1137.016562737087	1369.239283538464	364.727827347118	1036.789032163591	1463.572921993049	519.114349105109	1025.405224144370	1495.579538407408	327.966902253640	1080.446805352165	956.883105473444	538.102116189158	1077.345463180748	966.882440088049	262.209900989457	1154.932847662648	780.326066084629	523.993869771095	1112.982808434673	665.887814549466	609.190698657755	1202.151347228113	621.975921526378	532.455021444304	1237.365642932346	546.441111837899	556.887221078571	1106.841578142331	751.895430332966	292.488300189737	1007.723162596474	641.036071693433	229.857298182375	1088.444864480069	560.111002196680	288.956354904843	1083.305245360993	493.018337817893	297.532803415453	1058.005204048452	420.590275423900	293.311359081861	964.073745562668	304.076738564150	255.259064021329	1026.067011846704	195.938084342148	324.016880133470	1229.731590445144	463.111130318216	574.831442431697	1188.093552025522	350.094047861592	647.153665939478	1268.587083551600	268.960486318750	603.638431306915	1198.970195258284	73.267715435002	588.911368788244	1355.656539277902	163.290801087474	625.487081625896	1285.002702834174	79.669222934956	660.364173713481	1483.410182682888	137.437675168010	647.363531844399	905.939915619879	38.476745593407	377.848623931143	978.958413819245	33.907264734549	295.981125445610	1060.736391933962	98.920323650558	319.824821585535	1190.069587158444	50.541947382021	294.514673689736	1100.500347546752	1059.843409684434	86.165493934481	1248.954146479923	843.550462281676	97.728501245615	905.388665278192	1162.682987898083	672.337820800774	896.163017702048	905.661148388346	721.595789485922	
110	23.551571428571	854.310880957011	1009.325442070532	409.177255294815	1052.194648140286	1412.963948036462	186.649053076932	1136.466025471491	1368.914481757442	365.463501485981	1035.769622253773	1463.542945525457	519.378310815242	1025.192597341139	1495.288617236601	327.859433284903	1078.980357697157	956.557503125131	538.760497419957	1076.900683640032	966.852102876289	262.699828708170	1152.497897382350	779.317582223558	525.330060059006	1109.360871281288	665.050470607366	610.205990435166	1199.318844006131	620.909253765607	534.370061640191	1234.263161484139	546.728389873495	557.996045821419	1105.057180765131	751.345836783264	292.918710299657	1005.165333959977	641.081177629244	230.192199000537	1085.035898685371	559.629019533468	289.473453017182	1079.428348226498	492.673929834699	298.072251642342	1053.818789275691	420.359485912937	293.752673831225	959.453260609999	304.234612492946	255.493865671651	1020.957641426364	195.804195570620	324.272347555268	1228.796201962457	464.303595014758	575.967581683290	1190.624440933068	350.264736937828	648.695242520913	1273.364859329955	271.329072263346	605.032958756502	1209.046454258874	73.734950405597	591.140478766901	1364.042415835391	167.332014829173	626.381258811682	1295.580946967906	81.975791433785	661.785112740200	1492.629194939387	144.487011780779	647.020952298310	900.250943877761	38.495001140917	377.894179026494	973.286575160370	33.972836127975	296.066473372698	1055.134420143493	98.840690009144	319.959142590830	1184.418126623497	50.344120638721	294.543547462787	1101.258774530707	1059.238550367675	87.227466247343	1253.062140015094	845.229481339574	100.102776230668	902.363261885602	1163.426102365632	671.925512080197	892.485991940685	906.416042622433	721.359775715289	
111	23.565714285714	853.491924314626	1009.243631243408	408.951898495116	1052.321616201377	1412.608962732413	187.229717984066	1135.891620443020	1368.635958370922	366.391434821966	1034.699140732970	1463.495667979235	519.853350970448	1024.919901164615	1495.036728023803	328.020357760487	1077.602169532596	956.257695361789	539.538741180506	1076.482161916926	966.792618580127	263.325545298167	1150.589515836488	778.620870285633	526.669748912011	1106.442307793858	664.304894680931	611.054257414258	1197.165872746495	620.123853513071	536.063045531445	1231.829781484660	546.852592981079	559.031796651643	1103.283320710069	750.770908844750	293.531604265928	1002.613845357945	641.121466931346	230.649713365406	1081.573364830023	559.120088651038	290.151374056148	1075.476569592247	492.320695197449	298.761655533078	1049.566963270492	420.148907820426	294.294853077670	954.800086903233	304.412093190277	255.784155976204	1015.808475438936	195.676830822023	324.572661245114	1227.777640096933	465.034832037550	576.905545382118	1191.892692010726	350.391270115264	649.856820201982	1276.020961653780	272.931903124194	606.076294461143	1215.092435011538	74.267274569149	592.725382222780	1369.002848894365	169.959031135233	626.950677022476	1301.978899022989	83.583179388612	662.753316475980	1498.064860533674	149.015494155471	646.656512880260	894.550089402398	38.506793194807	377.940270872905	967.606666903460	34.034368552605	296.148994607364	1049.512015717884	98.771693592478	320.100127359270	1178.755374633635	50.179166793495	294.579557628446	1101.857358895688	1058.706822432174	88.504704157659	1256.629545137649	846.794807395371	102.603431273011	899.888002085571	1163.874522341615	671.797479258270	890.520552012454	906.751504139203	721.077565179411	
